<?xml version="1.0" standalone="no"?><!DOCTYPE svg PUBLIC "-//W3C//DTD SVG 1.1//EN" "http://www.w3.org/Graphics/SVG/1.1/DTD/svg11.dtd"><svg t="1721215649908" class="icon" viewBox="0 0 1024 1024" version="1.1" xmlns="http://www.w3.org/2000/svg" p-id="8018" xmlns:xlink="http://www.w3.org/1999/xlink" width="200" height="200"><path d="M917.75 334.75c-28.5 34.26-52.73 72.06-71.63 112.75l-95.54 205.68c-20.27 43.64-62.73 71.74-110.82 73.34-40.76 1.45-78.67-16.57-103.38-47.75-4.45-5.62-8.53-11.62-12.06-18.07l-125.2-228.44c-3.54-6.46-9.16-7.72-13.19-7.55-3.5 0.1-8.06 1.28-11.27 5.85-0.43 0.6-0.82 1.28-1.19 2.01-0.08 0.16-0.18 0.28-0.26 0.45L272.85 644.54c-24.85 52.38-56.6 101.41-93.92 145.76l263.91 152.37c42.79 24.71 95.53 24.71 138.32 0l269.22-155.44c42.79-24.71 69.16-70.37 69.16-119.79V356.56c0-7.38-0.65-14.65-1.79-21.81z" fill="#0e932e" p-id="8019"></path><path d="M382.65 312.47c47.82-1.58 91.92 23.82 114.93 65.83l21.3 38.88 103.88 189.57c3.55 6.49 9.12 7.69 13.24 7.55 3.37-0.11 7.7-1.25 10.86-5.4 0.67-0.88 1.31-1.84 1.85-3.01l95.54-205.68c27.61-59.46 64.37-114.05 108.54-161.91-0.82-0.5-1.6-1.04-2.44-1.52L581.16 81.34c-42.79-24.71-95.53-24.71-138.32 0L173.61 236.77c-42.79 24.71-69.16 70.37-69.16 119.79v310.87c0 10.8 1.33 21.39 3.74 31.66 24.6-31.88 45.94-66.28 63.21-102.68l100.36-211.53c20.53-43.26 63.02-71.02 110.89-72.41z" fill="#0e932e" p-id="8020"></path></svg>